<?xml version="1.0" encoding="UTF-8" standalone="no"?><!-- Generator: Gravit.io --><svg xmlns="http://www.w3.org/2000/svg" xmlns:xlink="http://www.w3.org/1999/xlink" style="isolation:isolate" viewBox="0 0 1024 1024" width="1024pt" height="1024pt"><defs><clipPath id="_clipPath_PIkt53Jpt7C442ugoWqfECruK710sIRR"><rect width="1024" height="1024"/></clipPath></defs><g clip-path="url(#_clipPath_PIkt53Jpt7C442ugoWqfECruK710sIRR)"><path d=" M 206.38 259.36 L 206.38 259.36 Q 209.16 259.36 210.57 260.54 L 210.57 260.54 L 210.57 260.54 Q 211.98 261.72 211.98 263.76 L 211.98 263.76 L 211.98 263.76 Q 211.98 266.38 210.27 267.95 L 210.27 267.95 L 210.27 267.95 Q 208.56 269.52 205.22 269.94 L 205.22 269.94 L 205.22 269.94 Q 204.82 269.98 204.64 269.98 L 204.64 269.98 L 204.64 269.98 Q 203.98 269.98 203.66 269.75 L 203.66 269.75 L 203.66 269.75 Q 203.34 269.52 203.34 269.12 L 203.34 269.12 L 203.34 269.12 Q 203.34 268.76 203.58 268.51 L 203.58 268.51 L 203.58 268.51 Q 203.82 268.26 204.26 268.18 L 204.26 268.18 L 204.26 268.18 Q 206.72 267.68 207.87 266.72 L 207.87 266.72 L 207.87 266.72 Q 209.02 265.76 209.02 264.16 L 209.02 264.16 L 209.02 264.16 Q 209.02 262.92 208.25 262.27 L 208.25 262.27 L 208.25 262.27 Q 207.48 261.62 205.8 261.62 L 205.8 261.62 L 205.8 261.62 Q 204.34 261.62 202.6 262.04 L 202.6 262.04 L 202.6 262.04 Q 202.38 263.36 202.13 265.51 L 202.13 265.51 L 202.13 265.51 Q 201.88 267.66 201.8 268.76 L 201.8 268.76 L 201.8 268.76 Q 201.76 269.42 201.36 269.73 L 201.36 269.73 L 201.36 269.73 Q 200.96 270.04 200.3 270.04 L 200.3 270.04 L 200.3 270.04 Q 199.64 270.04 199.29 269.72 L 199.29 269.72 L 199.29 269.72 Q 198.94 269.4 198.94 268.88 L 198.94 268.88 L 198.94 268.88 Q 198.94 267.66 199.62 262.94 L 199.62 262.94 L 199.56 262.96 L 199.56 262.96 Q 199.26 263.06 199.04 263.06 L 199.04 263.06 L 199.04 263.06 Q 198.62 263.06 198.35 262.78 L 198.35 262.78 L 198.35 262.78 Q 198.08 262.5 198.08 262.08 L 198.08 262.08 L 198.08 262.08 Q 198.08 261.24 198.88 260.94 L 198.88 260.94 L 198.88 260.94 Q 199.84 260.58 199.98 260.54 L 199.98 260.54 L 199.98 260.54 Q 200.2 259.22 200.82 256.16 L 200.82 256.16 L 200.82 256.16 Q 200.88 255.8 200.97 255.42 L 200.97 255.42 L 200.97 255.42 Q 201.06 255.04 201.14 254.6 L 201.14 254.6 L 201.14 254.6 Q 198.96 254.74 198.02 255.25 L 198.02 255.25 L 198.02 255.25 Q 197.08 255.76 197.08 256.8 L 197.08 256.8 L 197.08 256.8 Q 197.08 257.48 197.48 258.1 L 197.48 258.1 L 197.48 258.1 Q 197.58 258.24 197.58 258.44 L 197.58 258.44 L 197.58 258.44 Q 197.58 258.8 197.23 259.08 L 197.23 259.08 L 197.23 259.08 Q 196.88 259.36 196.42 259.36 L 196.42 259.36 L 196.42 259.36 Q 195.74 259.36 195.38 259.04 L 195.38 259.04 L 195.38 259.04 Q 195.1 258.8 194.9 258.15 L 194.9 258.15 L 194.9 258.15 Q 194.7 257.5 194.7 256.84 L 194.7 256.84 L 194.7 256.84 Q 194.7 254.42 196.84 253.29 L 196.84 253.29 L 196.84 253.29 Q 198.98 252.16 203.5 252.16 L 203.5 252.16 L 203.5 252.16 Q 206.02 252.16 207.39 252.12 L 207.39 252.12 L 207.39 252.12 Q 208.76 252.08 210.02 251.96 L 210.02 251.96 L 210.02 251.96 Q 210.62 251.9 210.89 252.15 L 210.89 252.15 L 210.89 252.15 Q 211.16 252.4 211.16 252.94 L 211.16 252.94 L 211.16 252.94 Q 211.16 253.56 210.83 253.88 L 210.83 253.88 L 210.83 253.88 Q 210.5 254.2 209.68 254.28 L 209.68 254.28 L 209.68 254.28 Q 208.26 254.44 207.06 254.49 L 207.06 254.49 L 207.06 254.49 Q 205.86 254.54 203.98 254.54 L 203.98 254.54 L 203.98 254.54 Q 203.7 255.96 203.1 259.12 L 203.1 259.12 L 203.1 259.12 Q 203.08 259.32 203 259.72 L 203 259.72 L 203 259.72 Q 204.8 259.36 206.38 259.36 L 206.38 259.36 Z  M 224.76 264.6 L 224.76 264.6 Q 225.02 264.6 225.17 264.84 L 225.17 264.84 L 225.17 264.84 Q 225.32 265.08 225.32 265.5 L 225.32 265.5 L 225.32 265.5 Q 225.32 266.3 224.94 266.74 L 224.94 266.74 L 224.94 266.74 Q 224.28 267.52 223.79 267.99 L 223.79 267.99 L 223.79 267.99 Q 223.3 268.46 222.59 268.81 L 222.59 268.81 L 222.59 268.81 Q 221.88 269.16 220.98 269.16 L 220.98 269.16 L 220.98 269.16 Q 219.8 269.16 219.3 268.23 L 219.3 268.23 L 219.3 268.23 Q 218.8 267.3 218.8 265.42 L 218.8 265.42 L 218.8 265.42 Q 218.8 264.48 218.88 263.6 L 218.88 263.6 L 218.84 263.6 L 218.84 263.6 Q 218.04 266.26 216.87 267.7 L 216.87 267.7 L 216.87 267.7 Q 215.7 269.14 214.2 269.14 L 214.2 269.14 L 214.2 269.14 Q 213.18 269.14 212.6 268.4 L 212.6 268.4 L 212.6 268.4 Q 212.02 267.66 212.02 266.54 L 212.02 266.54 L 212.02 266.54 Q 212.02 265.54 212.48 264.92 L 212.48 264.92 L 212.48 264.92 Q 212.94 264.3 213.78 264.3 L 213.78 264.3 L 213.78 264.3 Q 214.16 264.3 214.35 264.46 L 214.35 264.46 L 214.35 264.46 Q 214.54 264.62 214.5 264.9 L 214.5 264.9 L 214.5 264.9 Q 214.34 265.86 214.34 266.22 L 214.34 266.22 L 214.34 266.22 Q 214.34 266.94 214.7 266.94 L 214.7 266.94 L 214.7 266.94 Q 214.9 266.94 215.15 266.64 L 215.15 266.64 L 215.15 266.64 Q 215.4 266.34 216 265.18 L 216 265.18 L 216 265.18 Q 216.46 264.3 216.95 263.2 L 216.95 263.2 L 216.95 263.2 Q 217.44 262.1 217.76 261.24 L 217.76 261.24 L 217.76 261.24 Q 218.08 260.4 218.5 260.09 L 218.5 260.09 L 218.5 260.09 Q 218.92 259.78 219.7 259.78 L 219.7 259.78 L 219.7 259.78 Q 220.46 259.78 220.82 260.08 L 220.82 260.08 L 220.82 260.08 Q 221.18 260.38 221.18 261.06 L 221.18 261.06 L 221.14 262.54 L 221.14 262.54 Q 221.06 264.22 221.06 264.96 L 221.06 264.96 L 221.06 264.96 Q 221.06 267.06 221.92 267.06 L 221.92 267.06 L 221.92 267.06 Q 222.28 267.06 222.63 266.72 L 222.63 266.72 L 222.63 266.72 Q 222.98 266.38 223.72 265.48 L 223.72 265.48 L 224.22 264.88 L 224.22 264.88 Q 224.46 264.6 224.76 264.6 L 224.76 264.6 Z  M 226.42 269.16 L 226.42 269.16 Q 225.18 269.16 224.44 268.26 L 224.44 268.26 L 224.44 268.26 Q 223.7 267.36 223.7 265.9 L 223.7 265.9 L 223.7 265.9 Q 223.7 264.3 224.44 262.87 L 224.44 262.87 L 224.44 262.87 Q 225.18 261.44 226.41 260.57 L 226.41 260.57 L 226.41 260.57 Q 227.64 259.7 229.02 259.7 L 229.02 259.7 L 229.02 259.7 Q 229.46 259.7 229.61 259.87 L 229.61 259.87 L 229.61 259.87 Q 229.76 260.04 229.86 260.48 L 229.86 260.48 L 229.86 260.48 Q 230.28 260.4 230.74 260.4 L 230.74 260.4 L 230.74 260.4 Q 231.72 260.4 231.72 261.1 L 231.72 261.1 L 231.72 261.1 Q 231.72 261.52 231.42 263.1 L 231.42 263.1 L 231.42 263.1 Q 230.96 265.4 230.96 266.3 L 230.96 266.3 L 230.96 266.3 Q 230.96 266.6 231.11 266.78 L 231.11 266.78 L 231.11 266.78 Q 231.26 266.96 231.5 266.96 L 231.5 266.96 L 231.5 266.96 Q 231.88 266.96 232.42 266.47 L 232.42 266.47 L 232.42 266.47 Q 232.96 265.98 233.88 264.88 L 233.88 264.88 L 233.88 264.88 Q 234.12 264.6 234.42 264.6 L 234.42 264.6 L 234.42 264.6 Q 234.68 264.6 234.83 264.84 L 234.83 264.84 L 234.83 264.84 Q 234.98 265.08 234.98 265.5 L 234.98 265.5 L 234.98 265.5 Q 234.98 266.3 234.6 266.74 L 234.6 266.74 L 234.6 266.74 Q 233.78 267.76 232.86 268.46 L 232.86 268.46 L 232.86 268.46 Q 231.94 269.16 231.08 269.16 L 231.08 269.16 L 231.08 269.16 Q 230.42 269.16 229.87 268.71 L 229.87 268.71 L 229.87 268.71 Q 229.32 268.26 229.04 267.48 L 229.04 267.48 L 229.04 267.48 Q 228 269.16 226.42 269.16 L 226.42 269.16 Z  M 227.14 267.14 L 227.14 267.14 Q 227.58 267.14 227.98 266.62 L 227.98 266.62 L 227.98 266.62 Q 228.38 266.1 228.56 265.24 L 228.56 265.24 L 229.3 261.56 L 229.3 261.56 Q 228.46 261.58 227.75 262.19 L 227.75 262.19 L 227.75 262.19 Q 227.04 262.8 226.62 263.8 L 226.62 263.8 L 226.62 263.8 Q 226.2 264.8 226.2 265.92 L 226.2 265.92 L 226.2 265.92 Q 226.2 266.54 226.45 266.84 L 226.45 266.84 L 226.45 266.84 Q 226.7 267.14 227.14 267.14 L 227.14 267.14 Z  M 236.38 259.56 L 236.38 259.56 Q 237.88 259.56 238.65 260.09 L 238.65 260.09 L 238.65 260.09 Q 239.42 260.62 239.42 261.62 L 239.42 261.62 L 239.42 261.62 Q 239.42 262.48 239.06 263.06 L 239.06 263.06 L 239.06 263.06 Q 238.7 263.64 238.2 263.98 L 238.2 263.98 L 238.2 263.98 Q 237.7 264.32 236.9 264.72 L 236.9 264.72 L 236.9 264.72 Q 236.04 265.16 235.64 265.48 L 235.64 265.48 L 235.64 265.48 Q 235.24 265.8 235.24 266.34 L 235.24 266.34 L 235.24 266.34 Q 235.24 266.78 235.56 266.96 L 235.56 266.96 L 235.56 266.96 Q 235.88 267.14 236.68 267.14 L 236.68 267.14 L 236.68 267.14 Q 237.86 267.14 239.03 266.55 L 239.03 266.55 L 239.03 266.55 Q 240.2 265.96 241.1 264.88 L 241.1 264.88 L 241.1 264.88 Q 241.32 264.6 241.64 264.6 L 241.64 264.6 L 241.64 264.6 Q 241.9 264.6 242.05 264.84 L 242.05 264.84 L 242.05 264.84 Q 242.2 265.08 242.2 265.5 L 242.2 265.5 L 242.2 265.5 Q 242.2 266.24 241.82 266.74 L 241.82 266.74 L 241.82 266.74 Q 240.86 268.02 239.48 268.69 L 239.48 268.69 L 239.48 268.69 Q 238.1 269.36 236.42 269.36 L 236.42 269.36 L 236.42 269.36 Q 234.66 269.36 233.7 268.75 L 233.7 268.75 L 233.7 268.75 Q 232.74 268.14 232.74 266.78 L 232.74 266.78 L 232.74 266.78 Q 232.74 265.92 233.11 265.31 L 233.11 265.31 L 233.11 265.31 Q 233.48 264.7 234.01 264.31 L 234.01 264.31 L 234.01 264.31 Q 234.54 263.92 235.34 263.5 L 235.34 263.5 L 235.34 263.5 Q 236.16 263.06 236.54 262.73 L 236.54 262.73 L 236.54 262.73 Q 236.92 262.4 236.92 261.94 L 236.92 261.94 L 236.92 261.94 Q 236.92 261.68 236.7 261.53 L 236.7 261.53 L 236.7 261.53 Q 236.48 261.38 236.06 261.38 L 236.06 261.38 L 236.06 261.38 Q 235.68 261.38 235.38 261.49 L 235.38 261.49 L 235.38 261.49 Q 235.08 261.6 234.72 261.8 L 234.72 261.8 L 234.72 261.8 Q 234.52 261.9 234.31 261.99 L 234.31 261.99 L 234.31 261.99 Q 234.1 262.08 233.92 262.08 L 233.92 262.08 L 233.92 262.08 Q 233.54 262.08 233.33 261.83 L 233.33 261.83 L 233.33 261.83 Q 233.12 261.58 233.12 261.18 L 233.12 261.18 L 233.12 261.18 Q 233.12 260.64 233.62 260.26 L 233.62 260.26 L 233.62 260.26 Q 234.02 259.96 234.8 259.76 L 234.8 259.76 L 234.8 259.76 Q 235.58 259.56 236.38 259.56 L 236.38 259.56 Z  M 251.16 262.92 L 251.16 262.92 Q 251.42 262.92 251.56 263.18 L 251.56 263.18 L 251.56 263.18 Q 251.7 263.44 251.7 263.84 L 251.7 263.84 L 251.7 263.84 Q 251.7 264.8 251.12 264.98 L 251.12 264.98 L 251.12 264.98 Q 249.92 265.4 248.48 265.46 L 248.48 265.46 L 248.48 265.46 Q 248.1 267.14 246.98 268.15 L 246.98 268.15 L 246.98 268.15 Q 245.86 269.16 244.44 269.16 L 244.44 269.16 L 244.44 269.16 Q 243.24 269.16 242.39 268.58 L 242.39 268.58 L 242.39 268.58 Q 241.54 268 241.1 267.04 L 241.1 267.04 L 241.1 267.04 Q 240.66 266.08 240.66 264.96 L 240.66 264.96 L 240.66 264.96 Q 240.66 263.44 241.24 262.25 L 241.24 262.25 L 241.24 262.25 Q 241.82 261.06 242.84 260.39 L 242.84 260.39 L 242.84 260.39 Q 243.86 259.72 245.1 259.72 L 245.1 259.72 L 245.1 259.72 Q 246.62 259.72 247.55 260.77 L 247.55 260.77 L 247.55 260.77 Q 248.48 261.82 248.64 263.36 L 248.64 263.36 L 248.64 263.36 Q 249.58 263.3 250.88 262.96 L 250.88 262.96 L 250.88 262.96 Q 251.04 262.92 251.16 262.92 L 251.16 262.92 Z  M 244.6 267.04 L 244.6 267.04 Q 245.24 267.04 245.71 266.52 L 245.71 266.52 L 245.71 266.52 Q 246.18 266 246.34 265.02 L 246.34 265.02 L 246.34 265.02 Q 245.72 264.6 245.39 263.92 L 245.39 263.92 L 245.39 263.92 Q 245.06 263.24 245.06 262.48 L 245.06 262.48 L 245.06 262.48 Q 245.06 262.16 245.12 261.84 L 245.12 261.84 L 245.02 261.84 L 245.02 261.84 Q 244.22 261.84 243.69 262.61 L 243.69 262.61 L 243.69 262.61 Q 243.16 263.38 243.16 264.78 L 243.16 264.78 L 243.16 264.78 Q 243.16 265.88 243.59 266.46 L 243.59 266.46 L 243.59 266.46 Q 244.02 267.04 244.6 267.04 L 244.6 267.04 Z  M 260.2 264.64 L 260.2 264.64 Q 260.46 264.64 260.61 264.89 L 260.61 264.89 L 260.61 264.89 Q 260.76 265.14 260.76 265.52 L 260.76 265.52 L 260.76 265.52 Q 260.76 265.98 260.62 266.24 L 260.62 266.24 L 260.62 266.24 Q 260.48 266.5 260.18 266.7 L 260.18 266.7 L 256.34 269.28 L 256.34 269.28 Q 255.58 273.42 254.35 275.79 L 254.35 275.79 L 254.35 275.79 Q 253.12 278.16 251.22 278.16 L 251.22 278.16 L 251.22 278.16 Q 250.2 278.16 249.56 277.53 L 249.56 277.53 L 249.56 277.53 Q 248.92 276.9 248.92 275.88 L 248.92 275.88 L 248.92 275.88 Q 248.92 274.94 249.35 273.96 L 249.35 273.96 L 249.35 273.96 Q 249.78 272.98 250.95 271.71 L 250.95 271.71 L 250.95 271.71 Q 252.12 270.44 254.26 268.8 L 254.26 268.8 L 254.32 268.34 L 254.32 268.34 Q 254.46 267.6 254.64 266.22 L 254.64 266.22 L 254.64 266.22 Q 254.24 267.66 253.52 268.41 L 253.52 268.41 L 253.52 268.41 Q 252.8 269.16 252 269.16 L 252 269.16 L 252 269.16 Q 251.1 269.16 250.53 268.33 L 250.53 268.33 L 250.53 268.33 Q 249.96 267.5 249.96 266.26 L 249.96 266.26 L 249.96 266.26 Q 249.96 264.76 250.16 263.51 L 250.16 263.51 L 250.16 263.51 Q 250.36 262.26 250.82 260.86 L 250.82 260.86 L 250.82 260.86 Q 251.02 260.26 251.38 260 L 251.38 260 L 251.38 260 Q 251.74 259.74 252.52 259.74 L 252.52 259.74 L 252.52 259.74 Q 252.96 259.74 253.13 259.88 L 253.13 259.88 L 253.13 259.88 Q 253.3 260.02 253.3 260.3 L 253.3 260.3 L 253.3 260.3 Q 253.3 260.46 253.08 261.38 L 253.08 261.38 L 253.08 261.38 Q 252.88 262.12 252.76 262.72 L 252.76 262.72 L 252.76 262.72 Q 252.6 263.54 252.48 264.29 L 252.48 264.29 L 252.48 264.29 Q 252.36 265.04 252.36 265.52 L 252.36 265.52 L 252.36 265.52 Q 252.36 266.28 252.78 266.28 L 252.78 266.28 L 252.78 266.28 Q 253.08 266.28 253.53 265.68 L 253.53 265.68 L 253.53 265.68 Q 253.98 265.08 254.49 263.86 L 254.49 263.86 L 254.49 263.86 Q 255 262.64 255.48 260.86 L 255.48 260.86 L 255.48 260.86 Q 255.64 260.26 255.97 260 L 255.97 260 L 255.97 260 Q 256.3 259.74 256.96 259.74 L 256.96 259.74 L 256.96 259.74 Q 257.42 259.74 257.6 259.86 L 257.6 259.86 L 257.6 259.86 Q 257.78 259.98 257.78 260.26 L 257.78 260.26 L 257.78 260.26 Q 257.78 260.76 257.26 263.7 L 257.26 263.7 L 256.74 266.92 L 256.74 266.92 Q 258.28 265.76 259.74 264.8 L 259.74 264.8 L 259.74 264.8 Q 260 264.64 260.2 264.64 L 260.2 264.64 Z  M 251.44 276.22 L 251.44 276.22 Q 251.94 276.22 252.56 275.06 L 252.56 275.06 L 252.56 275.06 Q 253.18 273.9 253.8 271.2 L 253.8 271.2 L 253.8 271.2 Q 252.26 272.5 251.57 273.57 L 251.57 273.57 L 251.57 273.57 Q 250.88 274.64 250.88 275.44 L 250.88 275.44 L 250.88 275.44 Q 250.88 275.78 251.01 276 L 251.01 276 L 251.01 276 Q 251.14 276.22 251.44 276.22 L 251.44 276.22 Z  M 263.78 269.16 L 263.78 269.16 Q 261.82 269.16 260.73 268.05 L 260.73 268.05 L 260.73 268.05 Q 259.64 266.94 259.64 265.12 L 259.64 265.12 L 259.64 265.12 Q 259.64 263.5 260.28 262.28 L 260.28 262.28 L 260.28 262.28 Q 260.92 261.06 261.94 260.4 L 261.94 260.4 L 261.94 260.4 Q 262.96 259.74 264.08 259.74 L 264.08 259.74 L 264.08 259.74 Q 265.18 259.74 265.79 260.39 L 265.79 260.39 L 265.79 260.39 Q 266.4 261.04 266.4 262.06 L 266.4 262.06 L 266.4 262.06 Q 266.4 262.9 266.03 263.48 L 266.03 263.48 L 266.03 263.48 Q 265.66 264.06 265.06 264.06 L 265.06 264.06 L 265.06 264.06 Q 264.68 264.06 264.45 263.88 L 264.45 263.88 L 264.45 263.88 Q 264.22 263.7 264.22 263.38 L 264.22 263.38 L 264.22 263.38 Q 264.22 263.24 264.26 263.06 L 264.26 263.06 L 264.26 263.06 Q 264.3 262.88 264.32 262.8 L 264.32 262.8 L 264.32 262.8 Q 264.42 262.5 264.42 262.24 L 264.42 262.24 L 264.42 262.24 Q 264.42 261.98 264.29 261.84 L 264.29 261.84 L 264.29 261.84 Q 264.16 261.7 263.92 261.7 L 263.92 261.7 L 263.92 261.7 Q 263.46 261.7 263.06 262.11 L 263.06 262.11 L 263.06 262.11 Q 262.66 262.52 262.42 263.22 L 262.42 263.22 L 262.42 263.22 Q 262.18 263.92 262.18 264.76 L 262.18 264.76 L 262.18 264.76 Q 262.18 267.08 264.2 267.08 L 264.2 267.08 L 264.2 267.08 Q 265.02 267.08 265.97 266.53 L 265.97 266.53 L 265.97 266.53 Q 266.92 265.98 267.84 264.88 L 267.84 264.88 L 267.84 264.88 Q 268.08 264.6 268.38 264.6 L 268.38 264.6 L 268.38 264.6 Q 268.64 264.6 268.79 264.84 L 268.79 264.84 L 268.79 264.84 Q 268.94 265.08 268.94 265.5 L 268.94 265.5 L 268.94 265.5 Q 268.94 266.26 268.56 266.74 L 268.56 266.74 L 268.56 266.74 Q 267.62 267.9 266.31 268.53 L 266.31 268.53 L 266.31 268.53 Q 265 269.16 263.78 269.16 L 263.78 269.16 Z  M 268.38 269.16 L 268.38 269.16 Q 267.62 269.16 267.31 268.36 L 267.31 268.36 L 267.31 268.36 Q 267 267.56 267 265.8 L 267 265.8 L 267 265.8 Q 267 263.2 267.74 260.86 L 267.74 260.86 L 267.74 260.86 Q 267.92 260.28 268.33 260.01 L 268.33 260.01 L 268.33 260.01 Q 268.74 259.74 269.48 259.74 L 269.48 259.74 L 269.48 259.74 Q 269.88 259.74 270.04 259.84 L 270.04 259.84 L 270.04 259.84 Q 270.2 259.94 270.2 260.22 L 270.2 260.22 L 270.2 260.22 Q 270.2 260.54 269.9 261.66 L 269.9 261.66 L 269.9 261.66 Q 269.7 262.46 269.58 263.05 L 269.58 263.05 L 269.58 263.05 Q 269.46 263.64 269.38 264.52 L 269.38 264.52 L 269.38 264.52 Q 269.92 262.96 270.67 261.88 L 270.67 261.88 L 270.67 261.88 Q 271.42 260.8 272.21 260.27 L 272.21 260.27 L 272.21 260.27 Q 273 259.74 273.7 259.74 L 273.7 259.74 L 273.7 259.74 Q 274.4 259.74 274.69 260.06 L 274.69 260.06 L 274.69 260.06 Q 274.98 260.38 274.98 261.04 L 274.98 261.04 L 274.98 261.04 Q 274.98 261.68 274.6 263.36 L 274.6 263.36 L 274.6 263.36 Q 274.44 264.08 274.38 264.44 L 274.38 264.44 L 274.38 264.44 Q 275.38 261.98 276.6 260.86 L 276.6 260.86 L 276.6 260.86 Q 277.82 259.74 278.88 259.74 L 278.88 259.74 L 278.88 259.74 Q 280.18 259.74 280.18 261.04 L 280.18 261.04 L 280.18 261.04 Q 280.18 261.82 279.74 263.86 L 279.74 263.86 L 279.74 263.86 Q 279.36 265.6 279.36 266.16 L 279.36 266.16 L 279.36 266.16 Q 279.36 266.96 279.94 266.96 L 279.94 266.96 L 279.94 266.96 Q 280.34 266.96 280.89 266.47 L 280.89 266.47 L 280.89 266.47 Q 281.44 265.98 282.36 264.88 L 282.36 264.88 L 282.36 264.88 Q 282.6 264.6 282.9 264.6 L 282.9 264.6 L 282.9 264.6 Q 283.16 264.6 283.31 264.84 L 283.31 264.84 L 283.31 264.84 Q 283.46 265.08 283.46 265.5 L 283.46 265.5 L 283.46 265.5 Q 283.46 266.3 283.08 266.74 L 283.08 266.74 L 283.08 266.74 Q 282.22 267.8 281.23 268.48 L 281.23 268.48 L 281.23 268.48 Q 280.24 269.16 278.98 269.16 L 278.98 269.16 L 278.98 269.16 Q 277.96 269.16 277.44 268.57 L 277.44 268.57 L 277.44 268.57 Q 276.92 267.98 276.92 266.86 L 276.92 266.86 L 276.92 266.86 Q 276.92 266.3 277.2 264.86 L 277.2 264.86 L 277.2 264.86 Q 277.46 263.6 277.46 263.12 L 277.46 263.12 L 277.46 263.12 Q 277.46 262.8 277.24 262.8 L 277.24 262.8 L 277.24 262.8 Q 276.98 262.8 276.5 263.47 L 276.5 263.47 L 276.5 263.47 Q 276.02 264.14 275.54 265.24 L 275.54 265.24 L 275.54 265.24 Q 275.06 266.34 274.76 267.56 L 274.76 267.56 L 274.76 267.56 Q 274.54 268.52 274.25 268.84 L 274.25 268.84 L 274.25 268.84 Q 273.96 269.16 273.32 269.16 L 273.32 269.16 L 273.32 269.16 Q 272.66 269.16 272.33 268.53 L 272.33 268.53 L 272.33 268.53 Q 272 267.9 272 267 L 272 267 L 272 267 Q 272 266.24 272.2 264.8 L 272.2 264.8 L 272.2 264.8 Q 272.36 263.52 272.36 263.12 L 272.36 263.12 L 272.36 263.12 Q 272.36 262.8 272.14 262.8 L 272.14 262.8 L 272.14 262.8 Q 271.84 262.8 271.38 263.52 L 271.38 263.52 L 271.38 263.52 Q 270.92 264.24 270.49 265.36 L 270.49 265.36 L 270.49 265.36 Q 270.06 266.48 269.8 267.56 L 269.8 267.56 L 269.8 267.56 Q 269.58 268.5 269.29 268.83 L 269.29 268.83 L 269.29 268.83 Q 269 269.16 268.38 269.16 L 268.38 269.16 Z  M 292.64 264.6 L 292.64 264.6 Q 292.9 264.6 293.05 264.84 L 293.05 264.84 L 293.05 264.84 Q 293.2 265.08 293.2 265.5 L 293.2 265.5 L 293.2 265.5 Q 293.2 266.3 292.82 266.74 L 292.82 266.74 L 292.82 266.74 Q 291.96 267.8 290.97 268.48 L 290.97 268.48 L 290.97 268.48 Q 289.98 269.16 288.72 269.16 L 288.72 269.16 L 288.72 269.16 Q 287.66 269.16 287 268.4 L 287 268.4 L 287 268.4 Q 285.86 269.14 284.62 269.16 L 284.62 269.16 L 284.62 269.16 Q 284.36 273.02 283.44 275.61 L 283.44 275.61 L 283.44 275.61 Q 282.52 278.2 280.74 278.2 L 280.74 278.2 L 280.74 278.2 Q 279.66 278.2 279.14 277.42 L 279.14 277.42 L 279.14 277.42 Q 278.62 276.64 278.62 275.26 L 278.62 275.26 L 278.62 275.26 Q 278.62 273.3 279.52 270.69 L 279.52 270.69 L 279.52 270.69 Q 280.42 268.08 282.3 264.94 L 282.3 264.94 L 282.3 264.94 Q 282.3 262.02 282.26 260.88 L 282.26 260.88 L 282.26 260.88 Q 282.24 260.3 282.72 259.96 L 282.72 259.96 L 282.72 259.96 Q 283.2 259.62 283.92 259.62 L 283.92 259.62 L 283.92 259.62 Q 284.34 259.62 284.53 259.79 L 284.53 259.79 L 284.53 259.79 Q 284.72 259.96 284.74 260.46 L 284.74 260.46 L 284.74 260.46 Q 284.74 260.96 284.76 261.2 L 284.76 261.2 L 284.76 261.2 Q 285.4 260.4 286.02 260.05 L 286.02 260.05 L 286.02 260.05 Q 286.64 259.7 287.34 259.7 L 287.34 259.7 L 287.34 259.7 Q 288.46 259.7 289.17 260.6 L 289.17 260.6 L 289.17 260.6 Q 289.88 261.5 289.88 262.96 L 289.88 262.96 L 289.88 262.96 Q 289.88 264.02 289.54 265.02 L 289.54 265.02 L 289.54 265.02 Q 289.2 266.02 288.6 266.84 L 288.6 266.84 L 288.6 266.84 Q 289.02 266.96 289.3 266.96 L 289.3 266.96 L 289.3 266.96 Q 289.96 266.96 290.56 266.48 L 290.56 266.48 L 290.56 266.48 Q 291.16 266 292.1 264.88 L 292.1 264.88 L 292.1 264.88 Q 292.34 264.6 292.64 264.6 L 292.64 264.6 Z  M 284.72 267.24 L 284.72 267.24 Q 285.44 267.08 286.05 266.45 L 286.05 266.45 L 286.05 266.45 Q 286.66 265.82 287.02 264.89 L 287.02 264.89 L 287.02 264.89 Q 287.38 263.96 287.38 262.94 L 287.38 262.94 L 287.38 262.94 Q 287.38 262.34 287.14 262.03 L 287.14 262.03 L 287.14 262.03 Q 286.9 261.72 286.5 261.72 L 286.5 261.72 L 286.5 261.72 Q 285.78 261.72 284.76 263.24 L 284.76 263.24 L 284.76 263.24 Q 284.74 264.12 284.74 265.82 L 284.74 265.82 L 284.74 265.82 Q 284.74 266.74 284.72 267.24 L 284.72 267.24 Z  M 280.9 276.24 L 280.9 276.24 Q 281.44 276.24 281.8 273.89 L 281.8 273.89 L 281.8 273.89 Q 282.16 271.54 282.26 268.04 L 282.26 268.04 L 282.26 268.04 Q 281.4 270.04 280.9 271.86 L 280.9 271.86 L 280.9 271.86 Q 280.4 273.68 280.4 274.92 L 280.4 274.92 L 280.4 274.92 Q 280.4 275.56 280.55 275.9 L 280.55 275.9 L 280.55 275.9 Q 280.7 276.24 280.9 276.24 L 280.9 276.24 Z  M 302.16 262.92 L 302.16 262.92 Q 302.42 262.92 302.56 263.18 L 302.56 263.18 L 302.56 263.18 Q 302.7 263.44 302.7 263.84 L 302.7 263.84 L 302.7 263.84 Q 302.7 264.8 302.12 264.98 L 302.12 264.98 L 302.12 264.98 Q 300.92 265.4 299.48 265.46 L 299.48 265.46 L 299.48 265.46 Q 299.1 267.14 297.98 268.15 L 297.98 268.15 L 297.98 268.15 Q 296.86 269.16 295.44 269.16 L 295.44 269.16 L 295.44 269.16 Q 294.24 269.16 293.39 268.58 L 293.39 268.58 L 293.39 268.58 Q 292.54 268 292.1 267.04 L 292.1 267.04 L 292.1 267.04 Q 291.66 266.08 291.66 264.96 L 291.66 264.96 L 291.66 264.96 Q 291.66 263.44 292.24 262.25 L 292.24 262.25 L 292.24 262.25 Q 292.82 261.06 293.84 260.39 L 293.84 260.39 L 293.84 260.39 Q 294.86 259.72 296.1 259.72 L 296.1 259.72 L 296.1 259.72 Q 297.62 259.72 298.55 260.77 L 298.55 260.77 L 298.55 260.77 Q 299.48 261.82 299.64 263.36 L 299.64 263.36 L 299.64 263.36 Q 300.58 263.3 301.88 262.96 L 301.88 262.96 L 301.88 262.96 Q 302.04 262.92 302.16 262.92 L 302.16 262.92 Z  M 295.6 267.04 L 295.6 267.04 Q 296.24 267.04 296.71 266.52 L 296.71 266.52 L 296.71 266.52 Q 297.18 266 297.34 265.02 L 297.34 265.02 L 297.34 265.02 Q 296.72 264.6 296.39 263.92 L 296.39 263.92 L 296.39 263.92 Q 296.06 263.24 296.06 262.48 L 296.06 262.48 L 296.06 262.48 Q 296.06 262.16 296.12 261.84 L 296.12 261.84 L 296.02 261.84 L 296.02 261.84 Q 295.22 261.84 294.69 262.61 L 294.69 262.61 L 294.69 262.61 Q 294.16 263.38 294.16 264.78 L 294.16 264.78 L 294.16 264.78 Q 294.16 265.88 294.59 266.46 L 294.59 266.46 L 294.59 266.46 Q 295.02 267.04 295.6 267.04 L 295.6 267.04 Z  M 303 269.16 L 303 269.16 Q 302.255 269.094 301.53 268.33 L 301.53 268.33 L 301.53 268.33 Q 300.96 267.5 300.96 266.26 L 300.96 266.26 L 300.96 266.26 Q 300.96 264.76 301.16 263.51 L 301.16 263.51 L 301.16 263.51 Q 301.36 262.26 301.82 260.86 L 301.82 260.86 L 301.82 260.86 Q 302.02 260.26 302.38 260 L 302.38 260 L 302.38 260 Q 302.74 259.74 303.52 259.74 L 303.52 259.74 L 303.52 259.74 Q 303.96 259.74 304.13 259.88 L 304.13 259.88 L 304.13 259.88 Q 304.3 260.02 304.3 260.3 L 304.3 260.3 L 304.3 260.3 Q 304.3 260.46 304.08 261.38 L 304.08 261.38 L 304.08 261.38 Q 303.88 262.12 303.76 262.72 L 303.76 262.72 L 303.76 262.72 Q 303.36 264.82 303.36 265.52 L 303.36 265.52 L 303.36 265.52 Q 303.36 265.94 303.46 266.11 L 303.46 266.11 L 303.46 266.11 Q 303.546 266.321 303.76 266.45 C 303.974 266.579 303.76 266.45 303.76 266.45 C 303.76 266.45 302.471 265.647 303.76 266.45 C 305.049 267.253 306.89 266.42 307.34 265.82 L 307.34 265.82 L 307.34 265.82 Q 307.79 265.22 308.3 264 L 308.3 264 L 308.3 264 Q 308.81 262.78 309.29 261 L 309.29 261 L 309.29 261 Q 309.45 260.4 309.78 260.14 L 309.78 260.14 L 309.78 260.14 Q 310.11 259.88 310.77 259.88 L 310.77 259.88 L 310.77 259.88 Q 311.23 259.88 311.41 259.99 L 311.41 259.99 L 311.41 259.99 Q 311.59 260.1 311.59 260.4 L 311.59 260.4 L 311.59 260.4 Q 311.59 260.9 311.09 263.14 L 311.09 263.14 L 311.09 263.14 Q 310.53 265.7 310.53 266.3 L 310.53 266.3 L 310.53 266.3 Q 310.53 266.68 310.69 266.89 L 310.69 266.89 L 310.69 266.89 Q 310.85 267.1 311.11 267.1 L 311.11 267.1 L 311.11 267.1 Q 311.51 267.1 312.06 266.61 L 312.06 266.61 L 312.06 266.61 Q 312.61 266.12 313.53 265.02 L 313.53 265.02 L 313.53 265.02 Q 313.77 264.74 314.07 264.74 L 314.07 264.74 L 314.07 264.74 Q 314.33 264.74 314.48 264.98 L 314.48 264.98 L 314.48 264.98 Q 314.63 265.22 314.63 265.64 L 314.63 265.64 L 314.63 265.64 Q 314.63 266.44 314.25 266.88 L 314.25 266.88 L 314.25 266.88 Q 313.39 267.94 312.4 268.62 L 312.4 268.62 L 312.4 268.62 Q 311.41 269.3 310.15 269.3 L 310.15 269.3 L 310.15 269.3 Q 309.19 269.3 308.74 268.56 L 308.74 268.56 L 308.74 268.56 Q 308.29 267.82 308.29 266.48 L 308.29 266.48 L 308.29 266.48 Q 307.954 267.941 307 268.62 C 306.046 269.299 307 268.62 307 268.62 C 307 268.62 308.377 267.836 307 268.62 C 305.623 269.404 303.78 269.292 303 269.16 L 303 269.16 Z  M 316.59 269.3 L 316.59 269.3 Q 314.63 269.3 313.54 268.19 L 313.54 268.19 L 313.54 268.19 Q 312.45 267.08 312.45 265.26 L 312.45 265.26 L 312.45 265.26 Q 312.45 263.64 313.09 262.42 L 313.09 262.42 L 313.09 262.42 Q 313.73 261.2 314.75 260.54 L 314.75 260.54 L 314.75 260.54 Q 315.77 259.88 316.89 259.88 L 316.89 259.88 L 316.89 259.88 Q 317.99 259.88 318.6 260.53 L 318.6 260.53 L 318.6 260.53 Q 319.21 261.18 319.21 262.2 L 319.21 262.2 L 319.21 262.2 Q 319.21 263.04 318.84 263.62 L 318.84 263.62 L 318.84 263.62 Q 318.47 264.2 317.87 264.2 L 317.87 264.2 L 317.87 264.2 Q 317.49 264.2 317.26 264.02 L 317.26 264.02 L 317.26 264.02 Q 317.03 263.84 317.03 263.52 L 317.03 263.52 L 317.03 263.52 Q 317.03 263.38 317.07 263.2 L 317.07 263.2 L 317.07 263.2 Q 317.11 263.02 317.13 262.94 L 317.13 262.94 L 317.13 262.94 Q 317.23 262.64 317.23 262.38 L 317.23 262.38 L 317.23 262.38 Q 317.23 262.12 317.1 261.98 L 317.1 261.98 L 317.1 261.98 Q 316.97 261.84 316.73 261.84 L 316.73 261.84 L 316.73 261.84 Q 316.27 261.84 315.87 262.25 L 315.87 262.25 L 315.87 262.25 Q 315.47 262.66 315.23 263.36 L 315.23 263.36 L 315.23 263.36 Q 314.99 264.06 314.99 264.9 L 314.99 264.9 L 314.99 264.9 Q 314.99 267.22 317.01 267.22 L 317.01 267.22 L 317.01 267.22 Q 317.83 267.22 318.78 266.67 L 318.78 266.67 L 318.78 266.67 Q 319.73 266.12 320.65 265.02 L 320.65 265.02 L 320.65 265.02 Q 320.89 264.74 321.19 264.74 L 321.19 264.74 L 321.19 264.74 Q 321.45 264.74 321.6 264.98 L 321.6 264.98 L 321.6 264.98 Q 321.75 265.22 321.75 265.64 L 321.75 265.64 L 321.75 265.64 Q 321.75 266.4 321.37 266.88 L 321.37 266.88 L 321.37 266.88 Q 320.43 268.04 319.12 268.67 L 319.12 268.67 L 319.12 268.67 Q 317.81 269.3 316.59 269.3 L 316.59 269.3 Z  M 321.19 269.3 L 321.19 269.3 Q 320.43 269.3 320.12 268.5 L 320.12 268.5 L 320.12 268.5 Q 319.81 267.7 319.81 265.94 L 319.81 265.94 L 319.81 265.94 Q 319.81 263.34 320.55 261 L 320.55 261 L 320.55 261 Q 320.73 260.42 321.14 260.15 L 321.14 260.15 L 321.14 260.15 Q 321.55 259.88 322.29 259.88 L 322.29 259.88 L 322.29 259.88 Q 322.69 259.88 322.85 259.98 L 322.85 259.98 L 322.85 259.98 Q 323.01 260.08 323.01 260.36 L 323.01 260.36 L 323.01 260.36 Q 323.01 260.68 322.71 261.8 L 322.71 261.8 L 322.71 261.8 Q 322.51 262.6 322.39 263.19 L 322.39 263.19 L 322.39 263.19 Q 322.27 263.78 322.19 264.66 L 322.19 264.66 L 322.19 264.66 Q 322.73 263.1 323.48 262.02 L 323.48 262.02 L 323.48 262.02 Q 324.23 260.94 325.02 260.41 L 325.02 260.41 L 325.02 260.41 Q 325.81 259.88 326.51 259.88 L 326.51 259.88 L 326.51 259.88 Q 327.21 259.88 327.5 260.2 L 327.5 260.2 L 327.5 260.2 Q 327.79 260.52 327.79 261.18 L 327.79 261.18 L 327.79 261.18 Q 327.79 261.82 327.41 263.5 L 327.41 263.5 L 327.41 263.5 Q 327.25 264.22 327.19 264.58 L 327.19 264.58 L 327.19 264.58 Q 328.19 262.12 329.41 261 L 329.41 261 L 329.41 261 Q 330.63 259.88 331.69 259.88 L 331.69 259.88 L 331.69 259.88 Q 332.99 259.88 332.99 261.18 L 332.99 261.18 L 332.99 261.18 Q 332.99 261.96 332.55 264 L 332.55 264 L 332.55 264 Q 332.17 265.74 332.17 266.3 L 332.17 266.3 L 332.17 266.3 Q 332.17 267.1 332.75 267.1 L 332.75 267.1 L 332.75 267.1 Q 333.15 267.1 333.7 266.61 L 333.7 266.61 L 333.7 266.61 Q 334.25 266.12 335.17 265.02 L 335.17 265.02 L 335.17 265.02 Q 335.41 264.74 335.71 264.74 L 335.71 264.74 L 335.71 264.74 Q 335.97 264.74 336.12 264.98 L 336.12 264.98 L 336.12 264.98 Q 336.27 265.22 336.27 265.64 L 336.27 265.64 L 336.27 265.64 Q 336.27 266.44 335.89 266.88 L 335.89 266.88 L 335.89 266.88 Q 335.03 267.94 334.04 268.62 L 334.04 268.62 L 334.04 268.62 Q 333.05 269.3 331.79 269.3 L 331.79 269.3 L 331.79 269.3 Q 330.77 269.3 330.25 268.71 L 330.25 268.71 L 330.25 268.71 Q 329.73 268.12 329.73 267 L 329.73 267 L 329.73 267 Q 329.73 266.44 330.01 265 L 330.01 265 L 330.01 265 Q 330.27 263.74 330.27 263.26 L 330.27 263.26 L 330.27 263.26 Q 330.27 262.94 330.05 262.94 L 330.05 262.94 L 330.05 262.94 Q 329.79 262.94 329.31 263.61 L 329.31 263.61 L 329.31 263.61 Q 328.83 264.28 328.35 265.38 L 328.35 265.38 L 328.35 265.38 Q 327.87 266.48 327.57 267.7 L 327.57 267.7 L 327.57 267.7 Q 327.35 268.66 327.06 268.98 L 327.06 268.98 L 327.06 268.98 Q 326.77 269.3 326.13 269.3 L 326.13 269.3 L 326.13 269.3 Q 325.47 269.3 325.14 268.67 L 325.14 268.67 L 325.14 268.67 Q 324.81 268.04 324.81 267.14 L 324.81 267.14 L 324.81 267.14 Q 324.81 266.38 325.01 264.94 L 325.01 264.94 L 325.01 264.94 Q 325.17 263.66 325.17 263.26 L 325.17 263.26 L 325.17 263.26 Q 325.17 262.94 324.95 262.94 L 324.95 262.94 L 324.95 262.94 Q 324.65 262.94 324.19 263.66 L 324.19 263.66 L 324.19 263.66 Q 323.73 264.38 323.3 265.5 L 323.3 265.5 L 323.3 265.5 Q 322.87 266.62 322.61 267.7 L 322.61 267.7 L 322.61 267.7 Q 322.39 268.64 322.1 268.97 L 322.1 268.97 L 322.1 268.97 Q 321.81 269.3 321.19 269.3 L 321.19 269.3 Z  M 345.41 263.06 L 345.41 263.06 Q 345.67 263.06 345.81 263.32 L 345.81 263.32 L 345.81 263.32 Q 345.95 263.58 345.95 263.98 L 345.95 263.98 L 345.95 263.98 Q 345.95 264.48 345.81 264.75 L 345.81 264.75 L 345.81 264.75 Q 345.67 265.02 345.37 265.12 L 345.37 265.12 L 345.37 265.12 Q 344.17 265.54 342.73 265.6 L 342.73 265.6 L 342.73 265.6 Q 342.33 267.26 341.22 268.28 L 341.22 268.28 L 341.22 268.28 Q 340.11 269.3 338.77 269.3 L 338.77 269.3 L 338.77 269.3 Q 336.75 269.3 335.83 267.76 L 335.83 267.76 L 335.83 267.76 Q 334.91 266.22 334.91 263.3 L 334.91 263.3 L 334.91 263.3 Q 335.07 262.59 335.71 259.56 L 335.71 259.56 L 335.71 259.56 Q 337.086 261.006 338 260.91 C 339.078 260.796 339.673 259.157 339.71 259.9 L 339.71 259.9 L 339.71 259.9 Q 341.05 260 341.89 261.01 L 341.89 261.01 L 341.89 261.01 Q 342.73 262.02 342.89 263.5 L 342.89 263.5 L 342.89 263.5 Q 343.83 263.44 345.13 263.1 L 345.13 263.1 L 345.13 263.1 Q 345.25 263.06 345.41 263.06 L 345.41 263.06 Z  M 338.85 267.18 L 338.85 267.18 Q 339.47 267.18 339.95 266.66 L 339.95 266.66 L 339.95 266.66 Q 340.43 266.14 340.59 265.16 L 340.59 265.16 L 340.59 265.16 Q 339.97 264.74 339.64 264.06 L 339.64 264.06 L 339.64 264.06 Q 339.31 263.38 339.31 262.62 L 339.31 262.62 L 339.31 262.62 Q 339.31 262.34 339.39 261.86 L 339.39 261.86 L 339.33 261.86 L 339.33 261.86 Q 338.51 261.86 337.96 262.67 L 337.96 262.67 L 337.96 262.67 Q 337.41 263.48 337.41 264.84 L 337.41 264.84 L 337.41 264.84 Q 337.41 265.98 337.84 266.58 L 337.84 266.58 L 337.84 266.58 Q 338.27 267.18 338.85 267.18 L 338.85 267.18 Z  M 353.97 263.06 L 353.97 263.06 Q 354.23 263.06 354.37 263.32 L 354.37 263.32 L 354.37 263.32 Q 354.51 263.58 354.51 263.98 L 354.51 263.98 L 354.51 263.98 Q 354.51 264.94 353.93 265.12 L 353.93 265.12 L 353.93 265.12 Q 352.73 265.54 351.29 265.6 L 351.29 265.6 L 351.29 265.6 Q 350.91 267.28 349.79 268.29 L 349.79 268.29 L 349.79 268.29 Q 348.67 269.3 347.25 269.3 L 347.25 269.3 L 347.25 269.3 Q 346.05 269.3 345.2 268.72 L 345.2 268.72 L 345.2 268.72 Q 344.35 268.14 343.91 267.18 L 343.91 267.18 L 343.91 267.18 Q 343.47 266.22 343.47 265.1 L 343.47 265.1 L 343.47 265.1 Q 343.47 263.58 344.05 262.39 L 344.05 262.39 L 344.05 262.39 Q 344.63 261.2 345.65 260.53 L 345.65 260.53 L 345.65 260.53 Q 346.67 259.86 347.91 259.86 L 347.91 259.86 L 347.91 259.86 Q 349.43 259.86 350.36 260.91 L 350.36 260.91 L 350.36 260.91 Q 351.29 261.96 351.45 263.5 L 351.45 263.5 L 351.45 263.5 Q 352.39 263.44 353.69 263.1 L 353.69 263.1 L 353.69 263.1 Q 353.85 263.06 353.97 263.06 L 353.97 263.06 Z  M 347.41 267.18 L 347.41 267.18 Q 348.05 267.18 348.52 266.66 L 348.52 266.66 L 348.52 266.66 Q 348.99 266.14 349.15 265.16 L 349.15 265.16 L 349.15 265.16 Q 348.53 264.74 348.2 264.06 L 348.2 264.06 L 348.2 264.06 Q 347.87 263.38 347.87 262.62 L 347.87 262.62 L 347.87 262.62 Q 347.87 262.3 347.93 261.98 L 347.93 261.98 L 347.83 261.98 L 347.83 261.98 Q 347.03 261.98 346.5 262.75 L 346.5 262.75 L 346.5 262.75 Q 345.97 263.52 345.97 264.92 L 345.97 264.92 L 345.97 264.92 Q 345.97 266.02 346.4 266.6 L 346.4 266.6 L 346.4 266.6 Q 346.83 267.18 347.41 267.18 L 347.41 267.18 Z " fill="rgb(0,138,12)"/><path d=" M 335.71 262.72 C 335.324 260.869 335.482 258.564 335.42 258 C 335.359 257.436 331.665 259.36 332 256.16 C 332.335 252.96 334.548 254.655 334.832 254.225 C 335.116 253.795 332.725 252.568 332.607 251.035 C 332.49 249.501 333.08 247.426 335 248 C 336.92 248.574 337.509 251.36 337.41 248 C 337.311 244.64 338.709 243.955 340 244 C 341.291 244.045 341.908 245.456 343 247 C 343.601 247.883 344.874 251.506 343.91 252 C 342.946 252.494 342.981 252.273 342.792 252.736 C 342.602 253.198 344.297 252.77 345 254 C 345.703 255.23 344.816 256.93 343.47 257 C 342.124 257.07 341.174 255.521 341 256 C 340.826 256.479 341.786 258.086 341.1 258.71 C 340.415 259.335 339.601 258 339.054 258.617 Q 338.508 259.235 339.054 260.36" fill="none" vector-effect="non-scaling-stroke" stroke-width="2" stroke="rgb(0,138,12)" stroke-linejoin="miter" stroke-linecap="square" stroke-miterlimit="3"/><g><path d=" M 301.681 257.809 C 301.527 257.96 301.633 257.905 301.39 258.028 L 301.39 258.028 L 301.39 258.028 Q 301.148 258.151 300.873 258.151 L 300.873 258.151 L 300.873 258.151 Q 300.534 258.151 300.291 257.987 L 300.291 257.987 L 300.291 257.987 Q 300.049 257.822 300.049 257.563 L 300.049 257.563 L 300.049 257.563 Q 300.018 257.336 300.194 257.152 L 300.194 257.152 L 306.53 252.68 L 306.53 252.68 Q 306.926 252.236 307.209 252.092 L 307.209 252.092 L 307.209 252.092 Q 307.492 251.948 307.799 251.948 L 307.799 251.948 L 307.799 251.948 Q 308.09 251.948 308.324 252.092 L 308.324 252.092 L 308.324 252.092 Q 308.726 252.412 308.955 252.68 L 308.955 252.68 L 310.814 254.477 L 314.022 257.576 L 314.022 257.576 L 314.07 257.713 Q 314.07 257.713 314.07 257.864 L 314.07 257.864 L 314.07 257.864 Q 314.07 258.192 313.803 258.39 L 313.803 258.39 L 313.803 258.39 Q 313.537 258.588 313.197 258.588 L 313.197 258.588 L 313.197 258.588 Q 312.955 258.588 312.753 258.465 L 312.753 258.465 L 312.753 258.465 Q 312.537 258.351 312.537 258.351 L 312.187 258.151 L 312.187 258.151 L 307.556 254.082 L 307.556 254.082 Q 301.836 257.658 301.681 257.809 Z " fill="rgb(168,62,0)"/><path d=" M 310.247 256.361 L 310.247 256.361 L 310.247 256.361 Q 310.411 255.798 310.771 254.578 L 310.771 254.578 L 310.771 254.578 Q 310.951 253.938 311.251 253.698 L 311.251 253.698 L 311.251 253.698 Q 311.551 253.458 312.211 253.458 L 312.211 253.458 L 312.211 253.458 Q 313.231 253.458 313.231 254.138 L 313.231 254.138 L 313.231 254.138 Q 313.231 254.638 312.851 256.458 L 312.851 256.458 L 312.851 256.458 Q 312.111 256.467 310.247 256.361 Z " fill="rgb(168,62,0)"/></g><path d=" M 214.99 128.84 L 214.99 128.84 Q 213.21 128.84 211.78 128.04 L 211.78 128.04 L 211.78 128.04 Q 210.35 127.24 209.51 125.69 L 209.51 125.69 L 209.51 125.69 Q 208.67 124.14 208.67 121.98 L 208.67 121.98 L 208.67 121.98 Q 208.67 118.94 209.78 116.62 L 209.78 116.62 L 209.78 116.62 Q 210.89 114.3 212.8 113.04 L 212.8 113.04 L 212.8 113.04 Q 214.71 111.78 217.03 111.78 L 217.03 111.78 L 217.03 111.78 Q 218.81 111.78 220.24 112.58 L 220.24 112.58 L 220.24 112.58 Q 221.67 113.38 222.51 114.93 L 222.51 114.93 L 222.51 114.93 Q 223.35 116.48 223.35 118.64 L 223.35 118.64 L 223.35 118.64 Q 223.35 121.68 222.24 124 L 222.24 124 L 222.24 124 Q 221.13 126.32 219.22 127.58 L 219.22 127.58 L 219.22 127.58 Q 217.31 128.84 214.99 128.84 L 214.99 128.84 L 214.99 128.84 Z  M 215.19 126.48 L 215.19 126.48 Q 216.75 126.48 217.94 125.52 L 217.94 125.52 L 217.94 125.52 Q 219.13 124.56 219.77 122.85 L 219.77 122.85 L 219.77 122.85 Q 220.41 121.14 220.41 118.98 L 220.41 118.98 L 220.41 118.98 Q 220.41 116.6 219.41 115.37 L 219.41 115.37 L 219.41 115.37 Q 218.41 114.14 216.83 114.14 L 216.83 114.14 L 216.83 114.14 Q 215.29 114.14 214.11 115.09 L 214.11 115.09 L 214.11 115.09 Q 212.93 116.04 212.27 117.75 L 212.27 117.75 L 212.27 117.75 Q 211.61 119.46 211.61 121.64 L 211.61 121.64 L 211.61 121.64 Q 211.61 124.02 212.61 125.25 L 212.61 125.25 L 212.61 125.25 Q 213.61 126.48 215.19 126.48 L 215.19 126.48 L 215.19 126.48 Z  M 235.31 122.6 L 235.31 122.6 Q 235.57 122.6 235.71 122.86 L 235.71 122.86 L 235.71 122.86 Q 235.85 123.12 235.85 123.52 L 235.85 123.52 L 235.85 123.52 Q 235.85 124.02 235.71 124.29 L 235.71 124.29 L 235.71 124.29 Q 235.57 124.56 235.27 124.66 L 235.27 124.66 L 235.27 124.66 Q 234.07 125.08 232.63 125.14 L 232.63 125.14 L 232.63 125.14 Q 232.23 126.8 231.12 127.82 L 231.12 127.82 L 231.12 127.82 Q 230.01 128.84 228.67 128.84 L 228.67 128.84 L 228.67 128.84 Q 226.65 128.84 225.73 127.3 L 225.73 127.3 L 225.73 127.3 Q 224.81 125.76 224.81 122.84 L 224.81 122.84 L 224.81 122.84 Q 224.81 120.26 225.45 117.23 L 225.45 117.23 L 225.45 117.23 Q 226.09 114.2 227.32 112.07 L 227.32 112.07 L 227.32 112.07 Q 228.55 109.94 230.25 109.94 L 230.25 109.94 L 230.25 109.94 Q 231.17 109.94 231.73 110.73 L 231.73 110.73 L 231.73 110.73 Q 232.29 111.52 232.29 112.78 L 232.29 112.78 L 232.29 112.78 Q 232.29 114.42 231.67 116.04 L 231.67 116.04 L 231.67 116.04 Q 231.05 117.66 229.61 119.44 L 229.61 119.44 L 229.61 119.44 Q 230.95 119.54 231.79 120.55 L 231.79 120.55 L 231.79 120.55 Q 232.63 121.56 232.79 123.04 L 232.79 123.04 L 232.79 123.04 Q 233.73 122.98 235.03 122.64 L 235.03 122.64 L 235.03 122.64 Q 235.15 122.6 235.31 122.6 L 235.31 122.6 L 235.31 122.6 Z  M 229.79 111.92 L 229.79 111.92 Q 229.39 111.92 228.92 113.11 L 228.92 113.11 L 228.92 113.11 Q 228.45 114.3 228.05 116.34 L 228.05 116.34 L 228.05 116.34 Q 227.65 118.38 227.45 120.8 L 227.45 120.8 L 227.45 120.8 Q 228.77 118.38 229.56 116.53 L 229.56 116.53 L 229.56 116.53 Q 230.35 114.68 230.35 113.24 L 230.35 113.24 L 230.35 113.24 Q 230.35 112.6 230.2 112.26 L 230.2 112.26 L 230.2 112.26 Q 230.05 111.92 229.79 111.92 L 229.79 111.92 L 229.79 111.92 Z  M 228.75 126.72 L 228.75 126.72 Q 229.37 126.72 229.85 126.2 L 229.85 126.2 L 229.85 126.2 Q 230.33 125.68 230.49 124.7 L 230.49 124.7 L 230.49 124.7 Q 229.87 124.28 229.54 123.6 L 229.54 123.6 L 229.54 123.6 Q 229.21 122.92 229.21 122.16 L 229.21 122.16 L 229.21 122.16 Q 229.21 121.88 229.29 121.4 L 229.29 121.4 L 229.23 121.4 L 229.23 121.4 Q 228.41 121.4 227.86 122.21 L 227.86 122.21 L 227.86 122.21 Q 227.31 123.02 227.31 124.38 L 227.31 124.38 L 227.31 124.38 Q 227.31 125.52 227.74 126.12 L 227.74 126.12 L 227.74 126.12 Q 228.17 126.72 228.75 126.72 L 228.75 126.72 L 228.75 126.72 Z  M 241.71 124.28 L 241.71 124.28 Q 241.97 124.28 242.12 124.52 L 242.12 124.52 L 242.12 124.52 Q 242.27 124.76 242.27 125.18 L 242.27 125.18 L 242.27 125.18 Q 242.27 125.98 241.89 126.42 L 241.89 126.42 L 241.89 126.42 Q 241.03 127.48 240.02 128.16 L 240.02 128.16 L 240.02 128.16 Q 239.01 128.84 237.73 128.84 L 237.73 128.84 L 237.73 128.84 Q 235.97 128.84 235.12 127.24 L 235.12 127.24 L 235.12 127.24 Q 234.27 125.64 234.27 123.1 L 234.27 123.1 L 234.27 123.1 Q 234.465 119.461 234.9 117.54 C 235.335 115.619 235.667 114.25 236.76 112.18 C 237.853 110.11 238.703 109.804 239.69 109.94 C 240.677 110.076 240.851 110.386 241.114 110.787 C 241.377 111.187 241.98 112.162 241.75 113.38 Q 241.52 114.598 240.35 116.53 Q 242.732 116.875 242.85 118.2 C 242.968 119.525 241.224 121.26 240 122.29 C 238.776 123.32 237.796 124.05 236.85 124.64 L 236.85 125.12 L 236.85 125.12 Q 236.99 125.94 237.31 126.29 L 237.31 126.29 L 237.31 126.29 Q 237.63 126.64 238.15 126.64 L 238.15 126.64 L 238.15 126.64 Q 238.97 126.64 239.59 126.17 L 239.59 126.17 L 239.59 126.17 Q 240.21 125.7 241.17 124.56 L 241.17 124.56 L 241.17 124.56 Q 241.41 124.28 241.71 124.28 L 241.71 124.28 Z  M 238 114 C 237.747 114.756 237.451 116.231 237.19 117.7 Q 236.929 119.169 236.71 122.42 Q 239.121 121.257 239.699 120.721 C 240.277 120.185 241.012 119.684 240.93 118.52 Q 240.848 117.356 239 117 L 240 113.44 C 240.293 112.288 239.399 111.782 239 111.92 C 238.601 112.058 238.253 113.244 238 114 Z  M 250.85 122.6 L 250.85 122.6 Q 251.11 122.6 251.25 122.86 L 251.25 122.86 L 251.25 122.86 Q 251.39 123.12 251.39 123.52 L 251.39 123.52 L 251.39 123.52 Q 251.39 124.48 250.81 124.66 L 250.81 124.66 L 250.81 124.66 Q 249.61 125.08 248.17 125.14 L 248.17 125.14 L 248.17 125.14 Q 247.79 126.82 246.67 127.83 L 246.67 127.83 L 246.67 127.83 Q 245.55 128.84 244.13 128.84 L 244.13 128.84 L 244.13 128.84 Q 242.93 128.84 242.08 128.26 L 242.08 128.26 L 242.08 128.26 Q 241.23 127.68 240.79 126.72 L 240.79 126.72 L 240.79 126.72 Q 240.35 125.76 240.35 124.64 L 240.35 124.64 L 240.35 124.64 Q 240.35 123.12 240.93 121.93 L 240.93 121.93 L 240.93 121.93 Q 241.51 120.74 242.53 120.07 L 242.53 120.07 L 242.53 120.07 Q 243.55 119.4 244.79 119.4 L 244.79 119.4 L 244.79 119.4 Q 246.31 119.4 247.24 120.45 L 247.24 120.45 L 247.24 120.45 Q 248.17 121.5 248.33 123.04 L 248.33 123.04 L 248.33 123.04 Q 249.27 122.98 250.57 122.64 L 250.57 122.64 L 250.57 122.64 Q 250.73 122.6 250.85 122.6 L 250.85 122.6 L 250.85 122.6 Z  M 244.29 126.72 L 244.29 126.72 Q 244.93 126.72 245.4 126.2 L 245.4 126.2 L 245.4 126.2 Q 245.87 125.68 246.03 124.7 L 246.03 124.7 L 246.03 124.7 Q 245.41 124.28 245.08 123.6 L 245.08 123.6 L 245.08 123.6 Q 244.75 122.92 244.75 122.16 L 244.75 122.16 L 244.75 122.16 Q 244.75 121.84 244.81 121.52 L 244.81 121.52 L 244.71 121.52 L 244.71 121.52 Q 243.91 121.52 243.38 122.29 L 243.38 122.29 L 243.38 122.29 Q 242.85 123.06 242.85 124.46 L 242.85 124.46 L 242.85 124.46 Q 242.85 125.56 243.28 126.14 L 243.28 126.14 L 243.28 126.14 Q 243.71 126.72 244.29 126.72 L 244.29 126.72 L 244.29 126.72 Z  M 259.91 124.32 L 259.91 124.32 Q 260.17 124.32 260.32 124.57 L 260.32 124.57 L 260.32 124.57 Q 260.47 124.82 260.47 125.2 L 260.47 125.2 L 260.47 125.2 Q 260.47 125.66 260.33 125.92 L 260.33 125.92 L 260.33 125.92 Q 260.19 126.18 259.89 126.38 L 259.89 126.38 L 259.89 126.38 Q 258.17 127.54 257.37 128.1 L 257.37 128.1 L 256.09 128.96 L 256.09 128.96 Q 255.33 133.1 254.1 135.47 L 254.1 135.47 L 254.1 135.47 Q 252.87 137.84 250.97 137.84 L 250.97 137.84 L 250.97 137.84 Q 249.95 137.84 249.31 137.21 L 249.31 137.21 L 249.31 137.21 Q 248.67 136.58 248.67 135.56 L 248.67 135.56 L 248.67 135.56 Q 248.67 134.14 249.79 132.51 L 249.79 132.51 L 249.79 132.51 Q 250.91 130.88 253.99 128.5 L 253.99 128.5 L 254.11 127.72 L 254.11 127.72 Q 253.77 128.26 253.22 128.55 L 253.22 128.55 L 253.22 128.55 Q 252.67 128.84 252.13 128.84 L 252.13 128.84 L 252.13 128.84 Q 250.89 128.84 250.15 127.94 L 250.15 127.94 L 250.15 127.94 Q 249.41 127.04 249.41 125.58 L 249.41 125.58 L 249.41 125.58 Q 249.41 123.98 250.15 122.55 L 250.15 122.55 L 250.15 122.55 Q 250.89 121.12 252.12 120.25 L 252.12 120.25 L 252.12 120.25 Q 253.35 119.38 254.73 119.38 L 254.73 119.38 L 254.73 119.38 Q 255.17 119.38 255.32 119.55 L 255.32 119.55 L 255.32 119.55 Q 255.47 119.72 255.57 120.16 L 255.57 120.16 L 255.57 120.16 Q 255.95 120.08 256.45 120.08 L 256.45 120.08 L 256.45 120.08 Q 256.95 120.08 257.16 120.23 L 257.16 120.23 L 257.16 120.23 Q 257.37 120.38 257.37 120.82 L 257.37 120.82 L 257.37 120.82 Q 257.37 121.06 257.35 121.2 L 257.35 121.2 L 257.35 121.2 Q 257.27 121.82 256.85 124.34 L 256.85 124.34 L 256.85 124.34 Q 256.77 124.82 256.68 125.39 L 256.68 125.39 L 256.68 125.39 Q 256.59 125.96 256.49 126.6 L 256.49 126.6 L 256.49 126.6 Q 258.03 125.4 259.45 124.48 L 259.45 124.48 L 259.45 124.48 Q 259.71 124.32 259.91 124.32 L 259.91 124.32 L 259.91 124.32 Z  M 252.85 126.82 L 252.85 126.82 Q 253.31 126.82 253.73 126.26 L 253.73 126.26 L 253.73 126.26 Q 254.15 125.7 254.33 124.66 L 254.33 124.66 L 254.97 121.24 L 254.97 121.24 Q 254.15 121.26 253.45 121.87 L 253.45 121.87 L 253.45 121.87 Q 252.75 122.48 252.33 123.48 L 252.33 123.48 L 252.33 123.48 Q 251.91 124.48 251.91 125.6 L 251.91 125.6 L 251.91 125.6 Q 251.91 126.22 252.16 126.52 L 252.16 126.52 L 252.16 126.52 Q 252.41 126.82 252.85 126.82 L 252.85 126.82 L 252.85 126.82 Z  M 251.19 135.9 L 251.19 135.9 Q 251.69 135.9 252.32 134.7 L 252.32 134.7 L 252.32 134.7 Q 252.95 133.5 253.53 130.88 L 253.53 130.88 L 253.53 130.88 Q 251.99 132.2 251.31 133.26 L 251.31 133.26 L 251.31 133.26 Q 250.63 134.32 250.63 135.12 L 250.63 135.12 L 250.63 135.12 Q 250.63 135.46 250.76 135.68 L 250.76 135.68 L 250.76 135.68 Q 250.89 135.9 251.19 135.9 L 251.19 135.9 L 251.19 135.9 Z  M 269.45 122.6 L 269.45 122.6 Q 269.71 122.6 269.85 122.86 L 269.85 122.86 L 269.85 122.86 Q 269.99 123.12 269.99 123.52 L 269.99 123.52 L 269.99 123.52 Q 269.99 124.48 269.41 124.66 L 269.41 124.66 L 269.41 124.66 Q 268.21 125.08 266.77 125.14 L 266.77 125.14 L 266.77 125.14 Q 266.39 126.82 265.27 127.83 L 265.27 127.83 L 265.27 127.83 Q 264.15 128.84 262.73 128.84 L 262.73 128.84 L 262.73 128.84 Q 261.53 128.84 260.68 128.26 L 260.68 128.26 L 260.68 128.26 Q 259.83 127.68 259.39 126.72 L 259.39 126.72 L 259.39 126.72 Q 258.95 125.76 258.95 124.64 L 258.95 124.64 L 258.95 124.64 Q 258.95 123.12 259.53 121.93 L 259.53 121.93 L 259.53 121.93 Q 260.11 120.74 261.13 120.07 L 261.13 120.07 L 261.13 120.07 Q 262.15 119.4 263.39 119.4 L 263.39 119.4 L 263.39 119.4 Q 264.91 119.4 265.84 120.45 L 265.84 120.45 L 265.84 120.45 Q 266.77 121.5 266.93 123.04 L 266.93 123.04 L 266.93 123.04 Q 267.87 122.98 269.17 122.64 L 269.17 122.64 L 269.17 122.64 Q 269.33 122.6 269.45 122.6 L 269.45 122.6 L 269.45 122.6 Z  M 262.89 126.72 L 262.89 126.72 Q 263.53 126.72 264 126.2 L 264 126.2 L 264 126.2 Q 264.47 125.68 264.63 124.7 L 264.63 124.7 L 264.63 124.7 Q 264.01 124.28 263.68 123.6 L 263.68 123.6 L 263.68 123.6 Q 263.35 122.92 263.35 122.16 L 263.35 122.16 L 263.35 122.16 Q 263.35 121.84 263.41 121.52 L 263.41 121.52 L 263.31 121.52 L 263.31 121.52 Q 262.51 121.52 261.98 122.29 L 261.98 122.29 L 261.98 122.29 Q 261.45 123.06 261.45 124.46 L 261.45 124.46 L 261.45 124.46 Q 261.45 125.56 261.88 126.14 L 261.88 126.14 L 261.88 126.14 Q 262.31 126.72 262.89 126.72 L 262.89 126.72 L 262.89 126.72 Z  M 269.69 128.84 L 269.69 128.84 Q 268.93 128.84 268.62 128.04 L 268.62 128.04 L 268.62 128.04 Q 268.31 127.24 268.31 125.48 L 268.31 125.48 L 268.31 125.48 Q 268.31 122.88 269.05 120.54 L 269.05 120.54 L 269.05 120.54 Q 269.23 119.96 269.64 119.69 L 269.64 119.69 L 269.64 119.69 Q 270.05 119.42 270.79 119.42 L 270.79 119.42 L 270.79 119.42 Q 271.19 119.42 271.35 119.52 L 271.35 119.52 L 271.35 119.52 Q 271.51 119.62 271.51 119.9 L 271.51 119.9 L 271.51 119.9 Q 271.51 120.22 271.21 121.34 L 271.21 121.34 L 271.21 121.34 Q 271.01 122.14 270.89 122.74 L 270.89 122.74 L 270.89 122.74 Q 270.77 123.34 270.69 124.22 L 270.69 124.22 L 270.69 124.22 Q 271.35 122.5 272.17 121.42 L 272.17 121.42 L 272.17 121.42 Q 272.99 120.34 273.78 119.88 L 273.78 119.88 L 273.78 119.88 Q 274.57 119.42 275.23 119.42 L 275.23 119.42 L 275.23 119.42 Q 276.53 119.42 276.53 120.72 L 276.53 120.72 L 276.53 120.72 Q 276.53 120.98 276.35 121.98 L 276.35 121.98 L 276.35 121.98 Q 276.19 122.78 276.19 122.98 L 276.19 122.98 L 276.19 122.98 Q 276.19 123.68 276.69 123.68 L 276.69 123.68 L 276.69 123.68 Q 277.25 123.68 278.13 122.8 L 278.13 122.8 L 278.13 122.8 Q 278.39 122.54 278.67 122.54 L 278.67 122.54 L 278.67 122.54 Q 278.93 122.54 279.08 122.77 L 279.08 122.77 L 279.08 122.77 Q 279.23 123 279.23 123.38 L 279.23 123.38 L 279.23 123.38 Q 279.23 124.12 278.83 124.54 L 278.83 124.54 L 278.83 124.54 Q 278.27 125.12 277.52 125.53 L 277.52 125.53 L 277.52 125.53 Q 276.77 125.94 275.93 125.94 L 275.93 125.94 L 275.93 125.94 Q 274.87 125.94 274.32 125.4 L 274.32 125.4 L 274.32 125.4 Q 273.77 124.86 273.77 123.94 L 273.77 123.94 L 273.77 123.94 Q 273.77 123.64 273.83 123.34 L 273.83 123.34 L 273.83 123.34 Q 273.87 122.94 273.87 122.8 L 273.87 122.8 L 273.87 122.8 Q 273.87 122.48 273.65 122.48 L 273.65 122.48 L 273.65 122.48 Q 273.35 122.48 272.86 123.15 L 272.86 123.15 L 272.86 123.15 Q 272.37 123.82 271.89 124.92 L 271.89 124.92 L 271.89 124.92 Q 271.41 126.02 271.11 127.24 L 271.11 127.24 L 271.11 127.24 Q 270.89 128.18 270.6 128.51 L 270.6 128.51 L 270.6 128.51 Q 270.31 128.84 269.69 128.84 L 269.69 128.84 L 269.69 128.84 Z  M 287.57 122.6 L 287.57 122.6 Q 287.83 122.6 287.97 122.86 L 287.97 122.86 L 287.97 122.86 Q 288.11 123.12 288.11 123.52 L 288.11 123.52 L 288.11 123.52 Q 288.11 124.48 287.53 124.66 L 287.53 124.66 L 287.53 124.66 Q 286.33 125.08 284.89 125.14 L 284.89 125.14 L 284.89 125.14 Q 284.51 126.82 283.39 127.83 L 283.39 127.83 L 283.39 127.83 Q 282.27 128.84 280.85 128.84 L 280.85 128.84 L 280.85 128.84 Q 279.65 128.84 278.8 128.26 L 278.8 128.26 L 278.8 128.26 Q 277.95 127.68 277.51 126.72 L 277.51 126.72 L 277.51 126.72 Q 277.07 125.76 277.07 124.64 L 277.07 124.64 L 277.07 124.64 Q 277.07 123.12 277.65 121.93 L 277.65 121.93 L 277.65 121.93 Q 278.23 120.74 279.25 120.07 L 279.25 120.07 L 279.25 120.07 Q 280.27 119.4 281.51 119.4 L 281.51 119.4 L 281.51 119.4 Q 283.03 119.4 283.96 120.45 L 283.96 120.45 L 283.96 120.45 Q 284.89 121.5 285.05 123.04 L 285.05 123.04 L 285.05 123.04 Q 285.99 122.98 287.29 122.64 L 287.29 122.64 L 287.29 122.64 Q 287.45 122.6 287.57 122.6 L 287.57 122.6 L 287.57 122.6 Z  M 281.01 126.72 L 281.01 126.72 Q 281.65 126.72 282.12 126.2 L 282.12 126.2 L 282.12 126.2 Q 282.59 125.68 282.75 124.7 L 282.75 124.7 L 282.75 124.7 Q 282.13 124.28 281.8 123.6 L 281.8 123.6 L 281.8 123.6 Q 281.47 122.92 281.47 122.16 L 281.47 122.16 L 281.47 122.16 Q 281.47 121.84 281.53 121.52 L 281.53 121.52 L 281.43 121.52 L 281.43 121.52 Q 280.63 121.52 280.1 122.29 L 280.1 122.29 L 280.1 122.29 Q 279.57 123.06 279.57 124.46 L 279.57 124.46 L 279.57 124.46 Q 279.57 125.56 280 126.14 L 280 126.14 L 280 126.14 Q 280.43 126.72 281.01 126.72 L 281.01 126.72 L 281.01 126.72 Z  M 297.75 124.28 L 297.75 124.28 Q 298.01 124.28 298.16 124.52 L 298.16 124.52 L 298.16 124.52 Q 298.31 124.76 298.31 125.18 L 298.31 125.18 L 298.31 125.18 Q 298.31 125.98 297.93 126.42 L 297.93 126.42 L 297.93 126.42 Q 297.11 127.42 296.13 128.13 L 296.13 128.13 L 296.13 128.13 Q 295.15 128.84 294.19 128.84 L 294.19 128.84 L 294.19 128.84 Q 292.67 128.84 291.87 127.06 L 291.87 127.06 L 291.87 127.06 Q 291.03 128.12 290.4 128.48 L 290.4 128.48 L 290.4 128.48 Q 289.77 128.84 288.93 128.84 L 288.93 128.84 L 288.93 128.84 Q 287.71 128.84 286.92 127.93 L 286.92 127.93 L 286.92 127.93 Q 286.13 127.02 286.13 125.56 L 286.13 125.56 L 286.13 125.56 Q 286.13 123.96 286.81 122.59 L 286.81 122.59 L 286.81 122.59 Q 287.81 120.92 288.68 120.35 Q 289.55 119.78 292 119.56 Q 291.657 119.115 291.66 116.911 Q 291.663 114.708 293.05 114.14 Q 293.142 111.484 293.57 110 C 294.269 107.575 295.242 106.944 295.7 107 C 296.158 107.056 296.93 107.842 296.93 110 Q 296.93 110.892 296.237 112.917 Q 297.289 113.163 297.501 113.455 C 297.714 113.748 297.871 114.548 297.75 115.487 C 297.529 117.195 296.985 119.099 296.83 119.5 C 296.675 119.901 296.25 120.588 295.906 121.16 C 295.17 122.383 294.906 122.186 293.57 124.48 L 293.57 124.48 L 293.57 124.48 Q 293.65 125.64 293.92 126.14 L 293.92 126.14 L 293.92 126.14 Q 294.19 126.64 294.61 126.64 L 294.61 126.64 L 294.61 126.64 Q 295.15 126.64 295.71 126.16 L 295.71 126.16 L 295.71 126.16 Q 296.27 125.68 297.21 124.56 L 297.21 124.56 L 297.21 124.56 Q 297.45 124.28 297.75 124.28 L 297.75 124.28 Z  M 294.16 113.58 C 294.031 115.086 293.909 115.876 293.84 117 Q 293.771 118.124 293.59 121.98 Q 295.657 119.317 296 118.52 C 296.343 117.723 296.938 115.218 296.669 114.513 Q 296.4 113.808 295 114 Q 295.571 112.152 295.71 111 C 295.79 110.343 295.84 110.053 295.44 110 C 295.04 109.947 294.289 112.074 294.16 113.58 Z  M 289.63 126.82 L 289.63 126.82 Q 290.01 126.82 290.39 126.51 L 290.39 126.51 L 290.39 126.51 Q 290.77 126.2 291.35 125.36 L 291.35 125.36 L 291.35 125.36 Q 291.15 124.28 291.15 122.94 L 291.15 122.94 L 291.15 122.94 Q 291.15 122.46 291.19 121.38 L 291.19 121.38 L 291.19 121.38 Q 290.09 121.72 289.36 122.85 L 289.36 122.85 L 289.36 122.85 Q 288.63 123.98 288.63 125.36 L 288.63 125.36 L 288.63 125.36 Q 288.63 126.82 289.63 126.82 L 289.63 126.82 L 289.63 126.82 Z  M 308.25 124.28 L 308.25 124.28 Q 308.51 124.28 308.66 124.52 L 308.66 124.52 L 308.66 124.52 Q 308.81 124.76 308.81 125.18 L 308.81 125.18 L 308.81 125.18 Q 308.81 125.98 308.43 126.42 L 308.43 126.42 L 308.43 126.42 Q 307.53 127.52 306.61 128.18 L 306.61 128.18 L 306.61 128.18 Q 305.69 128.84 304.43 128.84 L 304.43 128.84 L 304.43 128.84 Q 302.89 128.84 301.95 127.96 L 301.95 127.96 L 301.95 127.96 Q 301.01 127.08 301.01 125.62 L 301.01 125.62 L 301.01 125.62 Q 301.01 124.84 301.81 124.5 L 301.81 124.5 L 301.81 124.5 Q 302.69 124.12 303.07 123.69 L 303.07 123.69 L 303.07 123.69 Q 303.45 123.26 303.45 122.64 L 303.45 122.64 L 303.45 122.64 Q 303.45 122.28 303.3 122.1 L 303.3 122.1 L 303.3 122.1 Q 303.15 121.92 302.93 121.92 L 302.93 121.92 L 302.93 121.92 Q 302.39 121.92 301.74 122.7 L 301.74 122.7 L 301.74 122.7 Q 301.09 123.48 300.53 124.71 L 300.53 124.71 L 300.53 124.71 Q 299.97 125.94 299.65 127.24 L 299.65 127.24 L 299.65 127.24 Q 299.43 128.18 299.14 128.51 L 299.14 128.51 L 299.14 128.51 Q 298.85 128.84 298.23 128.84 L 298.23 128.84 L 298.23 128.84 Q 297.61 128.84 297.32 128.39 L 297.32 128.39 L 297.32 128.39 Q 297.03 127.94 296.93 127 L 296.93 127 L 296.93 127 Q 296.83 126.06 296.83 124.24 L 296.83 124.24 L 296.83 124.24 Q 296.929 120.313 297.46 117.82 C 297.991 115.327 297.839 115.084 299.14 111.92 C 300.441 108.756 301.951 107.978 302.56 108 C 303.169 108.022 303.995 108.671 304 110 Q 304.005 111.329 303 114.516 Q 305.597 114.831 305 117.06 L 305 117.06 L 305 117.06 Q 304.784 117.457 304.518 117.879 C 303.728 119.134 300.759 120.461 299.31 122.04 L 299.31 122.04 L 299.31 122.04 Q 299.25 123.08 299.25 124.18 L 299.25 124.18 L 299.25 124.18 Q 300.21 121.68 301.45 120.55 L 301.45 120.55 L 301.45 120.55 Q 302.69 119.42 303.77 119.42 L 303.77 119.42 L 303.77 119.42 Q 304.77 119.42 305.38 120.1 L 305.38 120.1 L 305.38 120.1 Q 305.99 120.78 305.99 121.78 L 305.99 121.78 L 305.99 121.78 Q 305.99 122.88 305.43 123.8 L 305.43 123.8 L 305.43 123.8 Q 304.87 124.72 303.51 125.44 L 303.51 125.44 L 303.51 125.44 Q 303.59 125.98 304 126.31 L 304 126.31 L 304 126.31 Q 304.41 126.64 304.99 126.64 L 304.99 126.64 L 304.99 126.64 Q 305.61 126.64 306.19 126.16 L 306.19 126.16 L 306.19 126.16 Q 306.77 125.68 307.71 124.56 L 307.71 124.56 L 307.71 124.56 Q 307.95 124.28 308.25 124.28 L 308.25 124.28 Z  M 300.96 112 Q 300.494 112.85 300 115 C 299.506 117.15 299.79 117.48 299.53 119.54 L 299.53 119.54 L 299.53 119.54 Q 302.71 118.72 303.52 117 Q 304.33 115.28 301.95 115.09 Q 303.214 109.973 302.56 110 Q 301.906 110.027 300.96 112 Z  M 309.65 128.84 L 309.65 128.84 Q 308.41 128.84 307.67 127.94 L 307.67 127.94 L 307.67 127.94 Q 306.93 127.04 306.93 125.58 L 306.93 125.58 L 306.93 125.58 Q 306.93 123.98 307.67 122.55 L 307.67 122.55 L 307.67 122.55 Q 308.41 121.12 309.64 120.25 L 309.64 120.25 L 309.64 120.25 Q 310.87 119.38 312.25 119.38 L 312.25 119.38 L 312.25 119.38 Q 312.69 119.38 312.84 119.55 L 312.84 119.55 L 312.84 119.55 Q 312.99 119.72 313.09 120.16 L 313.09 120.16 L 313.09 120.16 Q 313.51 120.08 313.97 120.08 L 313.97 120.08 L 313.97 120.08 Q 314.95 120.08 314.95 120.78 L 314.95 120.78 L 314.95 120.78 Q 314.95 121.2 314.65 122.78 L 314.65 122.78 L 314.65 122.78 Q 314.19 125.08 314.19 125.98 L 314.19 125.98 L 314.19 125.98 Q 314.19 126.28 314.34 126.46 L 314.34 126.46 L 314.34 126.46 Q 314.49 126.64 314.73 126.64 L 314.73 126.64 L 314.73 126.64 Q 315.11 126.64 315.65 126.15 L 315.65 126.15 L 315.65 126.15 Q 316.19 125.66 317.11 124.56 L 317.11 124.56 L 317.11 124.56 Q 317.35 124.28 317.65 124.28 L 317.65 124.28 L 317.65 124.28 Q 317.91 124.28 318.06 124.52 L 318.06 124.52 L 318.06 124.52 Q 318.21 124.76 318.21 125.18 L 318.21 125.18 L 318.21 125.18 Q 318.21 125.98 317.83 126.42 L 317.83 126.42 L 317.83 126.42 Q 317.01 127.44 316.09 128.14 L 316.09 128.14 L 316.09 128.14 Q 315.17 128.84 314.31 128.84 L 314.31 128.84 L 314.31 128.84 Q 313.65 128.84 313.1 128.39 L 313.1 128.39 L 313.1 128.39 Q 312.55 127.94 312.27 127.16 L 312.27 127.16 L 312.27 127.16 Q 311.23 128.84 309.65 128.84 L 309.65 128.84 L 309.65 128.84 Z  M 310.37 126.82 L 310.37 126.82 Q 310.81 126.82 311.21 126.3 L 311.21 126.3 L 311.21 126.3 Q 311.61 125.78 311.79 124.92 L 311.79 124.92 L 312.53 121.24 L 312.53 121.24 Q 311.69 121.26 310.98 121.87 L 310.98 121.87 L 310.98 121.87 Q 310.27 122.48 309.85 123.48 L 309.85 123.48 L 309.85 123.48 Q 309.43 124.48 309.43 125.6 L 309.43 125.6 L 309.43 125.6 Q 309.43 126.22 309.68 126.52 L 309.68 126.52 L 309.68 126.52 Q 309.93 126.82 310.37 126.82 L 310.37 126.82 L 310.37 126.82 Z  M 325.25 117.1 L 325.25 117.1 Q 325.57 117.1 325.78 117.39 L 325.78 117.39 L 325.78 117.39 Q 325.99 117.68 325.99 118.26 L 325.99 118.26 L 325.99 118.26 Q 325.99 118.8 325.77 119.07 L 325.77 119.07 L 325.77 119.07 Q 325.55 119.34 325.22 119.56 L 325.22 119.56 L 325.22 119.56 Q 324.89 119.78 324.75 119.88 L 324.75 119.88 L 324.75 119.88 Q 322.63 121.34 321.8 123.22 L 321.8 123.22 L 321.8 123.22 Q 320.97 125.1 320.79 127.24 L 320.79 127.24 L 320.79 127.24 Q 320.71 128.08 320.34 128.46 L 320.34 128.46 L 320.34 128.46 Q 319.97 128.84 319.41 128.84 L 319.41 128.84 L 319.41 128.84 Q 318.85 128.84 318.47 128.45 L 318.47 128.45 L 318.47 128.45 Q 318.09 128.06 318.09 127.08 L 318.09 127.08 L 318.09 127.08 Q 318.09 125.94 318.52 124.57 L 318.52 124.57 L 318.52 124.57 Q 318.95 123.2 319.9 121.84 L 319.9 121.84 L 319.9 121.84 Q 320.85 120.48 322.31 119.42 L 322.31 119.42 L 317.39 119.5 L 317.39 119.5 Q 316.97 119.5 316.75 119.22 L 316.75 119.22 L 316.75 119.22 Q 316.53 118.94 316.53 118.52 L 316.53 118.52 L 316.53 118.52 Q 316.53 118 316.86 117.59 L 316.86 117.59 L 316.86 117.59 Q 317.19 117.18 317.75 117.18 L 317.75 117.18 L 317.75 117.18 Q 318.73 117.18 320.61 117.32 L 320.61 117.32 L 320.61 117.32 Q 320.99 117.34 322.01 117.4 L 322.01 117.4 L 322.01 117.4 Q 323.03 117.46 323.61 117.46 L 323.61 117.46 L 323.61 117.46 Q 323.87 117.46 324.37 117.28 L 324.37 117.28 L 324.37 117.28 Q 324.47 117.26 324.76 117.18 L 324.76 117.18 L 324.76 117.18 Q 325.05 117.1 325.25 117.1 L 325.25 117.1 L 325.25 117.1 Z  M 329.49 128.84 L 329.49 128.84 Q 328.99 128.84 328.61 128.54 L 328.61 128.54 L 328.61 128.54 Q 328.23 128.24 328.23 127.6 L 328.23 127.6 L 328.25 127.38 L 328.25 127.38 Q 328.47 125.32 328.78 123.09 L 328.78 123.09 L 328.78 123.09 Q 329.09 120.86 329.31 119.66 L 329.31 119.66 L 327.75 120.1 L 327.51 120.14 L 327.51 120.14 Q 327.13 120.14 326.91 119.84 L 326.91 119.84 L 326.91 119.84 Q 326.69 119.54 326.69 119.16 L 326.69 119.16 L 326.71 118.98 L 326.71 118.98 Q 326.75 118.6 326.95 118.36 L 326.95 118.36 L 326.95 118.36 Q 327.15 118.12 327.72 117.88 L 327.72 117.88 L 327.72 117.88 Q 328.29 117.64 329.43 117.36 L 329.43 117.36 L 330.27 117.16 L 330.27 117.16 Q 330.73 117.06 331.03 117.06 L 331.03 117.06 L 331.03 117.06 Q 331.61 117.06 331.9 117.36 L 331.9 117.36 L 331.9 117.36 Q 332.19 117.66 332.19 118.2 L 332.19 118.2 L 332.19 118.2 Q 332.19 118.44 332.13 118.72 L 332.13 118.72 L 332.13 118.72 Q 331.81 120.28 330.91 127.6 L 330.91 127.6 L 330.91 127.6 Q 330.75 128.84 329.49 128.84 L 329.49 128.84 L 329.49 128.84 Z " fill="rgb(0,138,12)"/><g><path d=" M 269.49 119.152 C 269.38 119.259 269.456 119.22 269.284 119.307 L 269.284 119.307 L 269.284 119.307 Q 269.112 119.394 268.917 119.394 L 268.917 119.394 L 268.917 119.394 Q 268.677 119.394 268.505 119.278 L 268.505 119.278 L 268.505 119.278 Q 268.333 119.162 268.333 118.978 L 268.333 118.978 L 268.333 118.978 Q 268.311 118.817 268.436 118.687 L 268.436 118.687 L 272.925 115.518 L 272.925 115.518 Q 273.206 115.203 273.406 115.102 L 273.406 115.102 L 273.406 115.102 Q 273.607 115 273.824 115 L 273.824 115 L 273.824 115 Q 274.03 115 274.196 115.102 L 274.196 115.102 L 274.196 115.102 Q 274.481 115.328 274.643 115.518 L 274.643 115.518 L 275.961 116.791 L 278.233 118.987 L 278.233 118.987 L 278.268 119.084 Q 278.268 119.084 278.268 119.191 L 278.268 119.191 L 278.268 119.191 Q 278.268 119.424 278.079 119.564 L 278.079 119.564 L 278.079 119.564 Q 277.89 119.705 277.649 119.705 L 277.649 119.705 L 277.649 119.705 Q 277.477 119.705 277.334 119.617 L 277.334 119.617 L 277.334 119.617 Q 277.182 119.536 277.182 119.536 L 276.933 119.394 L 276.933 119.394 L 273.653 116.512 L 273.653 116.512 Q 269.6 119.045 269.49 119.152 Z " fill="rgb(168,62,0)"/><path d=" M 275.559 118.126 L 275.559 118.126 L 275.559 118.126 Q 275.675 117.727 275.93 116.863 L 275.93 116.863 L 275.93 116.863 Q 276.057 116.409 276.27 116.239 L 276.27 116.239 L 276.27 116.239 Q 276.482 116.069 276.95 116.069 L 276.95 116.069 L 276.95 116.069 Q 277.673 116.069 277.673 116.551 L 277.673 116.551 L 277.673 116.551 Q 277.673 116.905 277.404 118.195 L 277.404 118.195 L 277.404 118.195 Q 276.88 118.202 275.559 118.126 Z " fill="rgb(168,62,0)"/></g></g></svg>